<?xml version="1.0" encoding="UTF-8" standalone="no"?>
<!-- Created with Inkscape (http://www.inkscape.org/) -->

<svg
   version="1.1"
   id="svg2"
   width="794"
   height="1123"
   viewBox="0 0 794 1123"
   xmlns="http://www.w3.org/2000/svg"
   xmlns:svg="http://www.w3.org/2000/svg">
  <defs
     id="defs6" />
  <g
     id="g8"
     transform="matrix(1.3333333,0,0,-1.3333333,0,1133.4399)">
    <g
       id="g10"
       transform="translate(59.52747,-137.62998)">
      <path
         d="M 0,842.24997 H 476.22039"
         style="fill:none;stroke:#000000;stroke-width:0.74991;stroke-linecap:butt;stroke-linejoin:miter;stroke-miterlimit:10;stroke-dasharray:none;stroke-opacity:1"
         id="path12" />
    </g>
    <g
       id="g14"
       transform="translate(59.52747,-384.47212)">
      <path
         d="M 0,842.24997 H 476.22039"
         style="fill:none;stroke:#000000;stroke-width:0.74991;stroke-linecap:butt;stroke-linejoin:miter;stroke-miterlimit:10;stroke-dasharray:none;stroke-opacity:1"
         id="path16" />
    </g>
    <g
       id="g18"
       transform="translate(64.14633,-517.2573)">
      <path
         d="M 0,842.24997 H 476.22039"
         style="fill:none;stroke:#000000;stroke-width:0.74991;stroke-linecap:butt;stroke-linejoin:miter;stroke-miterlimit:10;stroke-dasharray:none;stroke-opacity:1"
         id="path20" />
    </g>
    <g
       id="g22"
       transform="translate(66.27747,-405.43345)">
      <path
         d="m 2.99991,840.75008 c 0,-0.19899 -0.03805,-0.3903 -0.11418,-0.5741 -0.07609,-0.18377 -0.18451,-0.34597 -0.32514,-0.4866 -0.14062,-0.14062 -0.30291,-0.24905 -0.48659,-0.32513 -0.1838,-0.0761 -0.37511,-0.11418 -0.5741,-0.11418 -0.19891,0 -0.39022,0.038 -0.57402,0.11418 -0.18377,0.0761 -0.34597,0.18451 -0.48659,0.32513 -0.14063,0.14063 -0.24906,0.30283 -0.32514,0.4866 C 0.03801,840.35978 0,840.55109 0,840.75008 c 0,0.19891 0.03801,0.39022 0.11415,0.57401 0.07608,0.18377 0.18451,0.34597 0.32514,0.4866 0.14062,0.14063 0.30282,0.24905 0.48659,0.32513 0.1838,0.0761 0.37511,0.11415 0.57402,0.11415 0.19899,0 0.3903,-0.038 0.5741,-0.11415 0.18368,-0.0761 0.34597,-0.1845 0.48659,-0.32513 0.14063,-0.14063 0.24905,-0.30283 0.32514,-0.4866 0.07613,-0.18379 0.11418,-0.3751 0.11418,-0.57401 z"
         style="fill:#000000;fill-opacity:1;fill-rule:nonzero;stroke:none"
         id="path24" />
    </g>
    <g
       id="g26"
       transform="translate(66.27747,-418.93345)">
      <path
         d="m 2.99991,840.75008 c 0,-0.19899 -0.03805,-0.3903 -0.11418,-0.5741 -0.07609,-0.18369 -0.18451,-0.34597 -0.32514,-0.4866 -0.14062,-0.14062 -0.30291,-0.24905 -0.48659,-0.32513 -0.1838,-0.0761 -0.37511,-0.11418 -0.5741,-0.11418 -0.19891,0 -0.39022,0.038 -0.57402,0.11418 -0.18377,0.0761 -0.34597,0.18451 -0.48659,0.32513 -0.14063,0.14063 -0.24906,0.30291 -0.32514,0.4866 C 0.03801,840.35978 0,840.55109 0,840.75008 c 0,0.19891 0.03801,0.39022 0.11415,0.57401 0.07608,0.18377 0.18451,0.34597 0.32514,0.4866 0.14062,0.14063 0.30282,0.24905 0.48659,0.32513 0.1838,0.0761 0.37511,0.11415 0.57402,0.11415 0.19899,0 0.3903,-0.038 0.5741,-0.11415 0.18368,-0.0761 0.34597,-0.1845 0.48659,-0.32513 0.14063,-0.14063 0.24905,-0.30283 0.32514,-0.4866 0.07613,-0.18379 0.11418,-0.3751 0.11418,-0.57401 z"
         style="fill:#000000;fill-opacity:1;fill-rule:nonzero;stroke:none"
         id="path28" />
    </g>
    <g
       id="g30"
       transform="translate(66.27747,-432.43345)">
      <path
         d="m 2.99991,840.75008 c 0,-0.19899 -0.03805,-0.3903 -0.11418,-0.5741 -0.07609,-0.18369 -0.18451,-0.34597 -0.32514,-0.4866 -0.14062,-0.14062 -0.30291,-0.24905 -0.48659,-0.32513 -0.1838,-0.0761 -0.37511,-0.11418 -0.5741,-0.11418 -0.19891,0 -0.39022,0.038 -0.57402,0.11418 -0.18377,0.0761 -0.34597,0.18451 -0.48659,0.32513 -0.14063,0.14063 -0.24906,0.30291 -0.32514,0.4866 C 0.03801,840.35978 0,840.55109 0,840.75008 c 0,0.19891 0.03801,0.39022 0.11415,0.57401 0.07608,0.18377 0.18451,0.34597 0.32514,0.4866 0.14062,0.14063 0.30282,0.24905 0.48659,0.32513 0.1838,0.0761 0.37511,0.11415 0.57402,0.11415 0.19899,0 0.3903,-0.038 0.5741,-0.11415 0.18368,-0.0761 0.34597,-0.1845 0.48659,-0.32513 0.14063,-0.14063 0.24905,-0.30283 0.32514,-0.4866 0.07613,-0.18379 0.11418,-0.3751 0.11418,-0.57401 z"
         style="fill:#000000;fill-opacity:1;fill-rule:nonzero;stroke:none"
         id="path32" />
    </g>
    <g
       id="g34"
       transform="translate(66.27747,-445.93345)">
      <path
         d="m 2.99991,840.75008 c 0,-0.19899 -0.03805,-0.3903 -0.11418,-0.5741 -0.07609,-0.18369 -0.18451,-0.34597 -0.32514,-0.4866 -0.14062,-0.14062 -0.30291,-0.24905 -0.48659,-0.32513 -0.1838,-0.0761 -0.37511,-0.11418 -0.5741,-0.11418 -0.19891,0 -0.39022,0.038 -0.57402,0.11418 -0.18377,0.0761 -0.34597,0.18451 -0.48659,0.32513 -0.14063,0.14063 -0.24906,0.30291 -0.32514,0.4866 C 0.03801,840.35978 0,840.55109 0,840.75008 c 0,0.19891 0.03801,0.39022 0.11415,0.57401 0.07608,0.18377 0.18451,0.34597 0.32514,0.4866 0.14062,0.14063 0.30282,0.24905 0.48659,0.32513 0.1838,0.0761 0.37511,0.11415 0.57402,0.11415 0.19899,0 0.3903,-0.038 0.5741,-0.11415 0.18368,-0.0761 0.34597,-0.1845 0.48659,-0.32513 0.14063,-0.14063 0.24905,-0.30283 0.32514,-0.4866 0.07613,-0.18379 0.11418,-0.3751 0.11418,-0.57401 z"
         style="fill:#000000;fill-opacity:1;fill-rule:nonzero;stroke:none"
         id="path36" />
    </g>
    <g
       id="g38"
       transform="translate(66.27747,-459.43345)">
      <path
         d="m 2.99991,840.75008 c 0,-0.19899 -0.03805,-0.3903 -0.11418,-0.5741 -0.07609,-0.18369 -0.18451,-0.34597 -0.32514,-0.4866 -0.14062,-0.14062 -0.30291,-0.24905 -0.48659,-0.32513 -0.1838,-0.0761 -0.37511,-0.11418 -0.5741,-0.11418 -0.19891,0 -0.39022,0.038 -0.57402,0.11418 -0.18377,0.0761 -0.34597,0.18451 -0.48659,0.32513 -0.14063,0.14063 -0.24906,0.30291 -0.32514,0.4866 C 0.03801,840.35978 0,840.55109 0,840.75008 c 0,0.19891 0.03801,0.39022 0.11415,0.57401 0.07608,0.18377 0.18451,0.34597 0.32514,0.4866 0.14062,0.14063 0.30282,0.24905 0.48659,0.32513 0.1838,0.0761 0.37511,0.11415 0.57402,0.11415 0.19899,0 0.3903,-0.038 0.5741,-0.11415 0.18368,-0.0761 0.34597,-0.1845 0.48659,-0.32513 0.14063,-0.14063 0.24905,-0.30283 0.32514,-0.4866 0.07613,-0.18379 0.11418,-0.3751 0.11418,-0.57401 z"
         style="fill:#000000;fill-opacity:1;fill-rule:nonzero;stroke:none"
         id="path40" />
    </g>
    <g
       id="g42"
       transform="translate(66.27747,-472.93345)">
      <path
         d="m 2.99991,840.75008 c 0,-0.19899 -0.03805,-0.3903 -0.11418,-0.57402 -0.07609,-0.18377 -0.18451,-0.34605 -0.32514,-0.48668 -0.14062,-0.14062 -0.30291,-0.24905 -0.48659,-0.32513 -0.1838,-0.0761 -0.37511,-0.11418 -0.5741,-0.11418 -0.19891,0 -0.39022,0.038 -0.57402,0.11418 -0.18377,0.0761 -0.34597,0.18451 -0.48659,0.32513 -0.14063,0.14063 -0.24906,0.30291 -0.32514,0.48668 C 0.03801,840.35978 0,840.55109 0,840.75008 c 0,0.19891 0.03801,0.39022 0.11415,0.57401 0.07608,0.18377 0.18451,0.34597 0.32514,0.4866 0.14062,0.14063 0.30282,0.24905 0.48659,0.32513 0.1838,0.0761 0.37511,0.11415 0.57402,0.11415 0.19899,0 0.3903,-0.038 0.5741,-0.11415 0.18368,-0.0761 0.34597,-0.1845 0.48659,-0.32513 0.14063,-0.14063 0.24905,-0.30283 0.32514,-0.4866 0.07613,-0.18379 0.11418,-0.3751 0.11418,-0.57401 z"
         style="fill:#000000;fill-opacity:1;fill-rule:nonzero;stroke:none"
         id="path44" />
    </g>
    <g
       id="g46"
       transform="translate(66.27747,-486.43345)">
      <path
         d="m 2.99991,840.75008 c 0,-0.19899 -0.03805,-0.3903 -0.11418,-0.5741 -0.07609,-0.18369 -0.18451,-0.34589 -0.32514,-0.4866 -0.14062,-0.14062 -0.30291,-0.24899 -0.48659,-0.32513 -0.1838,-0.0761 -0.37511,-0.11418 -0.5741,-0.11418 -0.19891,0 -0.39022,0.038 -0.57402,0.11418 -0.18377,0.0761 -0.34597,0.18451 -0.48659,0.32513 -0.14063,0.14071 -0.24906,0.30291 -0.32514,0.4866 C 0.03801,840.35978 0,840.55109 0,840.75008 c 0,0.19891 0.03801,0.39022 0.11415,0.57401 0.07608,0.18377 0.18451,0.34597 0.32514,0.4866 0.14062,0.14063 0.30282,0.24905 0.48659,0.32522 0.1838,0.0761 0.37511,0.11406 0.57402,0.11406 0.19899,0 0.3903,-0.038 0.5741,-0.11415 0.18368,-0.0761 0.34597,-0.1845 0.48659,-0.32513 0.14063,-0.14063 0.24905,-0.30283 0.32514,-0.4866 0.07613,-0.18379 0.11418,-0.3751 0.11418,-0.57401 z"
         style="fill:#000000;fill-opacity:1;fill-rule:nonzero;stroke:none"
         id="path48" />
    </g>
    <g
       id="g50"
       transform="translate(66.27747,-499.93345)">
      <path
         d="m 2.99991,840.75008 c 0,-0.19899 -0.03805,-0.3903 -0.11418,-0.57402 -0.07609,-0.18377 -0.18451,-0.34597 -0.32514,-0.48668 -0.14062,-0.14062 -0.30291,-0.24899 -0.48659,-0.32513 -0.1838,-0.0761 -0.37511,-0.11418 -0.5741,-0.11418 -0.19891,0 -0.39022,0.038 -0.57402,0.11418 -0.18377,0.0761 -0.34597,0.18451 -0.48659,0.32513 -0.14063,0.14071 -0.24906,0.30291 -0.32514,0.48668 C 0.03801,840.35978 0,840.55109 0,840.75008 c 0,0.19891 0.03801,0.39022 0.11415,0.57401 0.07608,0.18377 0.18451,0.34597 0.32514,0.4866 0.14062,0.14063 0.30282,0.24905 0.48659,0.32513 0.1838,0.0761 0.37511,0.11415 0.57402,0.11415 0.19899,0 0.3903,-0.038 0.5741,-0.11406 0.18368,-0.0762 0.34597,-0.18459 0.48659,-0.32522 0.14063,-0.14063 0.24905,-0.30283 0.32514,-0.4866 0.07613,-0.18379 0.11418,-0.3751 0.11418,-0.57401 z"
         style="fill:#000000;fill-opacity:1;fill-rule:nonzero;stroke:none"
         id="path52" />
    </g>
    <g
       id="g54"
       transform="translate(59.52747,-214.79374)">
      <path
         d="M 0,842.24997 H 476.22039"
         style="fill:none;stroke:#000000;stroke-width:0.74991;stroke-linecap:butt;stroke-linejoin:miter;stroke-miterlimit:10;stroke-dasharray:none;stroke-opacity:1"
         id="path56" />
    </g>
    <g
       id="g58"
       transform="translate(144.57776,-30.4954)">
      <text
         xml:space="preserve"
         transform="matrix(1,0,0,-1,0,809.7564)"
         style="font-variant:normal;font-weight:600;font-size:33px;font-family:'Open Sans';-inkscape-font-specification:'Open Sans';writing-mode:lr-tb;fill:#000000;fill-opacity:1;fill-rule:nonzero;stroke:#000000;stroke-width:0.94325;stroke-linecap:butt;stroke-linejoin:miter;stroke-miterlimit:10;stroke-dasharray:none;stroke-opacity:1"
         id="text62"><tspan
           x="0 9.9207211 30.717922 51.128448 65.206345 92.62114 122.92523 142.93282 163.73001 182.7225 211.942 232.8842 253.6814 272.67389 285.49503 299.57294"
           y="0"
           id="tspan60">IndraMohanKhatri</tspan></text>
    </g>
    <g
       id="g64"
       transform="translate(59.52747,-93.07809)">
      <text
         xml:space="preserve"
         transform="matrix(1,0,0,-1,0,832.69815)"
         style="font-variant:normal;font-weight:normal;font-size:9px;font-family:'Open Sans';-inkscape-font-specification:'Open Sans';writing-mode:lr-tb;fill:#000000;fill-opacity:1;fill-rule:nonzero;stroke:none"
         id="text68"><tspan
           x="0 4.9959211 9.9918423 17.175514 22.171436 27.167356 32.16328 37.159199 42.155121 47.15107 52.146992 57.142914 62.138836"
           y="0"
           id="tspan66">+919462449229</tspan></text>
    </g>
    <g
       id="g70"
       transform="translate(360.22147,-93.07809)">
      <text
         xml:space="preserve"
         transform="matrix(1,0,0,-1,0,832.05673)"
         style="font-variant:normal;font-weight:normal;font-size:9px;font-family:'Open Sans';-inkscape-font-specification:'Open Sans';writing-mode:lr-tb;fill:#000000;fill-opacity:1;fill-rule:nonzero;stroke:none"
         id="text76"><tspan
           x="0 2.1263244 7.500104 12.865238 16.388987 21.244251 29.46583 34.751736 40.125515 44.980782 50.354561 54.928688 60.302467 65.15773 68.184937 71.70871 73.835037 81.775307 86.555817 94.777397 99.632668 101.75899 103.88531 106.13033 110.26499 115.5509"
           y="0"
           id="tspan72">indramohankhatri@gmail.com</tspan><tspan
           x="0 6.4021606 8.5284853 11.555688 16.929497 22.303276 27.668409 29.91342 35.287201 38.314404 41.341633 46.706768 50.850086 53.095097 56.24963 59.404194 64.184715 66.311035 69.338242 74.712044 80.085823 85.450958 87.695969 91.830643 97.116516 105.3381 108.49266 113.76108 119.13486 123.19478 127.2547 129.38106 134.28026 139.64539"
           y="12.82997"
           id="tspan74">Github:https://github.com/PuzzledK</tspan></text>
    </g>
    <g
       id="g78"
       transform="translate(59.52747,-106.57809)">
      <text
         xml:space="preserve"
         transform="matrix(1,0,0,-1,0,832.69815)"
         style="font-variant:normal;font-weight:normal;font-size:9px;font-family:'Open Sans';-inkscape-font-specification:'Open Sans';writing-mode:lr-tb;fill:#000000;fill-opacity:1;fill-rule:nonzero;stroke:none"
         id="text82"><tspan
           x="0 5.5452189 7.6715431 10.417437 15.413385 22.597057 29.087122 31.213446 36.587227 41.367741 43.494095 48.349331 52.663437 59.298462 64.153732 68.934273 73.789543 77.313286 81.556953 87.23835 92.093613 95.617363 103.83897 108.73817 112.26192 116.50558 121.91899 126.77425 128.90057 133.75584 137.89917 140.92636 146.30017 151.15541"
           y="0"
           id="tspan80">Al-05HinglajNagar,Barmer,Rajasthan</tspan></text>
    </g>
    <g
       id="g84"
       transform="translate(274.64715,-140.95276)">
      <text
         xml:space="preserve"
         transform="matrix(1,0,0,-1,0,830.78307)"
         style="font-variant:normal;font-weight:600;font-size:11px;font-family:'Open Sans';-inkscape-font-specification:'Open Sans';writing-mode:lr-tb;fill:#000000;fill-opacity:1;fill-rule:nonzero;stroke:#000000;stroke-width:0.31442;stroke-linecap:butt;stroke-linejoin:miter;stroke-miterlimit:10;stroke-dasharray:none;stroke-opacity:1"
         id="text88"><tspan
           x="0 6.6175652 13.4983 22.006374 27.710787 30.917593 36.729439"
           y="0"
           id="tspan86">PROFILE</tspan></text>
    </g>
    <g
       id="g90"
       transform="translate(110.51031,-166.87684)">
      <text
         xml:space="preserve"
         transform="matrix(1,0,0,-1,-47.84655,830.98968)"
         style="font-variant:normal;font-weight:normal;font-size:10px;font-family:'Open Sans';-inkscape-font-specification:'Open Sans';writing-mode:lr-tb;fill:#000000;fill-opacity:1;fill-rule:nonzero;stroke:none"
         id="text96"><tspan
           x="0 6.1781101 14.613363 20.791502 25.411974 31.389931 33.769192 37.701099 40.08036 46.068008 53.844036 62.951809 68.412079 76.837662 83.977539 89.437836 94.297607 99.757896 102.13718 108.02724 114.00517 119.46546 125.84497 133.47328 135.85257 139.23273 147.66797 155.52708 160.13773 166.02777 172.0154 176.63589 180.01604 185.42755 191.41521 197.24295 203.23061 207.16248 212.49094 220.39886 223.77901 232.11668 234.49596 243.64766 249.62561 253.5575 259.44754 264.30731 272.21521 275.5954 281.58301 287.0433 296.19501 300.81549 306.27579 308.65503 314.34131 319.75281 325.58057 331.04086 335.90063 341.36093 345.29282 352.62943 357.24991 360.6301 366.04156 371.37006 379.27795 385.168 390.85425 393.23352 395.61279 398.85144 406.75931 412.17084 418.15848"
           y="0"
           id="tspan92">AnAspiringWebDeveloperwithaconstanturgetoimprovethemselfateverystageoflifeand</tspan><tspan
           x="144.82097 152.68011 157.53986 163.00015 166.93205 174.26866 179.36771 184.828 190.28828 198.72354 201.1028 207.09045 210.4706 215.93089 219.86279 225.32309 229.94356 235.77135 238.15063 246.58588 252.5735 258.03381 268.10971 271.4899 276.9502 281.56079 287.54843 293.53607 299.42612 301.80539 307.69547 313.02393 315.4032 320.86349 325.48398"
           y="14.18998"
           id="tspan94">averykeeninterestinnewtechnologies.</tspan></text>
    </g>
    <g
       id="g98"
       transform="translate(265.84401,-227.68707)">
      <text
         xml:space="preserve"
         transform="matrix(1,0,0,-1,0,830.78307)"
         style="font-variant:normal;font-weight:600;font-size:11px;font-family:'Open Sans';-inkscape-font-specification:'Open Sans';writing-mode:lr-tb;fill:#000000;fill-opacity:1;fill-rule:nonzero;stroke:#000000;stroke-width:0.31442;stroke-linecap:butt;stroke-linejoin:miter;stroke-miterlimit:10;stroke-dasharray:none;stroke-opacity:1"
         id="text102"><tspan
           x="0 5.9890113 13.911619 21.925587 28.747133 35.869579 41.944565 45.151371 53.659473"
           y="0"
           id="tspan100">EDUCATION</tspan></text>
    </g>
    <g
       id="g104"
       transform="translate(64.14636,-259.42612)">
      <text
         xml:space="preserve"
         transform="matrix(1,0,0,-1,0,832.69815)"
         style="font-variant:normal;font-weight:600;font-size:9px;font-family:'Open Sans';-inkscape-font-specification:'Open Sans';writing-mode:lr-tb;fill:#000000;fill-opacity:1;fill-rule:nonzero;stroke:#000000;stroke-width:0.25725;stroke-linecap:butt;stroke-linejoin:miter;stroke-miterlimit:10;stroke-dasharray:none;stroke-opacity:1"
         id="text108"><tspan
           x="0 4.94314 10.506019 15.57669 21.034035 26.104706 32.022793 34.619385 40.182266 44.413483 46.772675 50.160275 55.723152 59.110752 66.334053 71.681526 76.984383 81.857307 87.420189 92.275452 94.634644 100.19756 105.2331 110.26862 113.99896 116.35818 121.92106 128.96408 134.03474 139.59763 147.24272 152.18588 157.22144 161.52737 167.09026 172.65317 178.00064 180.35986 185.70734 190.56259 195.23775 197.49144 202.87854 207.9492 211.33681 213.696 218.76668 221.12589 226.19653 228.45021 233.83733 239.40019 244.9631 247.3223 252.39296"
           y="0"
           id="tspan106">ThaparInsituteofEngineeringandTechnology,Patiala,Punjab</tspan></text>
    </g>
    <g
       id="g110"
       transform="translate(405.07597,-261.35031)">
      <text
         xml:space="preserve"
         transform="matrix(1,0,0,-1,0,832.9336)"
         style="font-variant:normal;font-weight:600;font-size:9px;font-family:'Open Sans';-inkscape-font-specification:'Open Sans';writing-mode:lr-tb;fill:#000000;fill-opacity:1;fill-rule:nonzero;stroke:#000000;stroke-width:0.25725;stroke-linecap:butt;stroke-linejoin:miter;stroke-miterlimit:10;stroke-dasharray:none;stroke-opacity:1"
         id="text116"><tspan
           x="0 5.8000817 11.362961 18.405977 23.393084 28.380188 33.367294 40.542122 45.475765 50.862869 54.593204 59.628757 63.859974 68.895493 74.458405"
           y="0"
           id="tspan112">Aug2022-Present</tspan><tspan
           x="0 6.384501 11.771631 17.571712 19.895782 24.882889 27.206985 32.194092 39.368919 42.070877 47.624939 53.187817 56.918156 60.648491 65.684044 71.246918 74.634521"
           y="11.86999"
           id="tspan114">GPA:8.99(Current)</tspan></text>
    </g>
    <g
       id="g118"
       transform="translate(64.14636,-272.92612)">
      <text
         xml:space="preserve"
         transform="matrix(1,0,0,-1,0,832.69815)"
         style="font-variant:normal;font-weight:normal;font-size:9px;font-family:'Open Sans';-inkscape-font-specification:'Open Sans';writing-mode:lr-tb;fill:#000000;fill-opacity:1;fill-rule:nonzero;stroke:none"
         id="text122"><tspan
           x="0 5.6813951 10.536661 13.563865 17.698536 23.072315 27.971518 30.097843 35.383747 41.095245 46.381153 51.468605 56.996193 62.282097 70.503677 75.868813 81.242592 84.269791 89.168999 94.880524 99.735786 105.10957 109.89008 112.01641 117.39019 122.28942 127.18862 130.71237 132.8387 138.21251"
           y="0"
           id="tspan120">BatchelorofComputerEngineering</tspan></text>
    </g>
    <g
       id="g124"
       transform="translate(64.14636,-300.17614)">
      <text
         xml:space="preserve"
         transform="matrix(1,0,0,-1,0,832.05673)"
         style="font-variant:normal;font-weight:600;font-size:9px;font-family:'Open Sans';-inkscape-font-specification:'Open Sans';writing-mode:lr-tb;fill:#000000;fill-opacity:1;fill-rule:nonzero;stroke:#000000;stroke-width:0.25725;stroke-linecap:butt;stroke-linejoin:miter;stroke-miterlimit:10;stroke-dasharray:none;stroke-opacity:1"
         id="text128"><tspan
           x="0 8.1556444 13.226315 17.901468 23.464346 29.382435 36.28117 41.628643 47.086014 49.445206 54.480755 60.899696 66.699806 71.005745 76.076416 81.53376 86.569313 95.023758 99.698914 101.9526 107.74386 112.81453 116.54487 124.99931 130.03487 133.7652 136.01886 141.6212 146.69186 149.05106 154.12172 158.35295 161.74054 167.30342 172.3741"
           y="0"
           id="tspan126">MayurNoblesAcademy,Barmer,Rajasthan</tspan></text>
      <text
         xml:space="preserve"
         transform="matrix(1,0,0,-1,0,819.22676)"
         style="font-variant:normal;font-weight:normal;font-size:9px;font-family:'Open Sans';-inkscape-font-specification:'Open Sans';writing-mode:lr-tb;fill:#000000;fill-opacity:1;fill-rule:nonzero;stroke:none"
         id="text132"><tspan
           x="0 5.044167 7.4033856"
           y="0"
           id="tspan130">XII</tspan></text>
    </g>
    <g
       id="g134"
       transform="translate(405.07597,-300.17614)">
      <text
         xml:space="preserve"
         transform="matrix(1,0,0,-1,0,832.05673)"
         style="font-variant:normal;font-weight:600;font-size:9px;font-family:'Open Sans';-inkscape-font-specification:'Open Sans';writing-mode:lr-tb;fill:#000000;fill-opacity:1;fill-rule:nonzero;stroke:#000000;stroke-width:0.25725;stroke-linecap:butt;stroke-linejoin:miter;stroke-miterlimit:10;stroke-dasharray:none;stroke-opacity:1"
         id="text140"><tspan
           x="0 8.1556444 13.226315 20.089218 25.076324 30.063429 35.050537 42.225365 47.159008 55.314682 60.385349 67.248253 72.235359 77.222466 82.209541"
           y="0"
           id="tspan136">May2020-May2022</tspan><tspan
           x="0 4.7981482 9.1041164 14.451591 18.181927 25.405228 29.917049 34.904156 39.891258 42.215328 47.202435 52.189541"
           y="12.82997"
           id="tspan138">Score:97.33%</tspan></text>
    </g>
    <g
       id="g142"
       transform="translate(405.07597,-337.92605)">
      <text
         xml:space="preserve"
         transform="matrix(1,0,0,-1,0,832.05673)"
         style="font-variant:normal;font-weight:600;font-size:9px;font-family:'Open Sans';-inkscape-font-specification:'Open Sans';writing-mode:lr-tb;fill:#000000;fill-opacity:1;fill-rule:nonzero;stroke:#000000;stroke-width:0.25725;stroke-linecap:butt;stroke-linejoin:miter;stroke-miterlimit:10;stroke-dasharray:none;stroke-opacity:1"
         id="text148"><tspan
           x="0 8.1556444 13.226315 20.089218 25.076324 30.063429 35.050537 42.225365 47.159008 55.314682 60.385349 67.248253 72.235359 77.222466 82.209541"
           y="0"
           id="tspan144">May2007-May2019</tspan><tspan
           x="0 4.7981482 9.1041164 14.451591 18.181927 25.405228 29.917049 34.904156 39.891258 42.215328 47.202435"
           y="12.82997"
           id="tspan146">Score:87.5%</tspan></text>
    </g>
    <g
       id="g150"
       transform="translate(64.14636,-337.92605)">
      <text
         xml:space="preserve"
         transform="matrix(1,0,0,-1,0,832.05673)"
         style="font-variant:normal;font-weight:600;font-size:9px;font-family:'Open Sans';-inkscape-font-specification:'Open Sans';writing-mode:lr-tb;fill:#000000;fill-opacity:1;fill-rule:nonzero;stroke:#000000;stroke-width:0.25725;stroke-linecap:butt;stroke-linejoin:miter;stroke-miterlimit:10;stroke-dasharray:none;stroke-opacity:1"
         id="text154"><tspan
           x="0 4.94314 7.3023591 12.865238 19.728142 24.67131 30.018784 33.406384 39.825325 44.623501 48.35384 52.865688 57.663837 62.699387 67.005356 71.517174 76.315353 80.621292 86.184174 91.53167 96.87915 99.238365 103.67977 109.47104 114.54171 118.27205 126.72649 131.76204 135.49237 137.74606 143.34837 148.41904 150.77826 155.84894 160.08012 163.46773 169.03061 174.10127"
           y="0"
           id="tspan152">TinyTotsSr.Sec.School,Barmer,Rajasthan</tspan></text>
      <text
         xml:space="preserve"
         transform="matrix(1,0,0,-1,0,819.22676)"
         style="font-variant:normal;font-weight:normal;font-size:9px;font-family:'Open Sans';-inkscape-font-specification:'Open Sans';writing-mode:lr-tb;fill:#000000;fill-opacity:1;fill-rule:nonzero;stroke:none"
         id="text158"><tspan
           x="0"
           y="0"
           id="tspan156">X</tspan></text>
    </g>
    <g
       id="g160"
       transform="translate(281.76849,-387.03611)">
      <text
         xml:space="preserve"
         transform="matrix(1,0,0,-1,0,830.78307)"
         style="font-variant:normal;font-weight:600;font-size:11px;font-family:'Open Sans';-inkscape-font-specification:'Open Sans';writing-mode:lr-tb;fill:#000000;fill-opacity:1;fill-rule:nonzero;stroke:#000000;stroke-width:0.31442;stroke-linecap:butt;stroke-linejoin:miter;stroke-miterlimit:10;stroke-dasharray:none;stroke-opacity:1"
         id="text164"><tspan
           x="0 5.8978205 12.778554 15.985361 21.797207 27.609053"
           y="0"
           id="tspan162">SKILLS</tspan></text>
    </g>
    <g
       id="g166"
       transform="translate(76.75407,-399.84463)">
      <text
         xml:space="preserve"
         transform="matrix(1,0,0,-1,0,831.88189)"
         style="font-variant:normal;font-weight:600;font-size:10px;font-family:'Open Sans';-inkscape-font-specification:'Open Sans';writing-mode:lr-tb;fill:#000000;fill-opacity:1;fill-rule:nonzero;stroke:#000000;stroke-width:0.28583;stroke-linecap:butt;stroke-linejoin:miter;stroke-miterlimit:10;stroke-dasharray:none;stroke-opacity:1"
         id="text170"><tspan
           x="0 6.1878047 9.9390612 16.126865 21.684755 29.690248"
           y="0"
           id="tspan168">C/C++:</tspan></text>
      <text
         xml:space="preserve"
         transform="matrix(1,0,0,-1,34.73685,831.88189)"
         style="font-variant:normal;font-weight:normal;font-size:10px;font-family:'Open Sans';-inkscape-font-specification:'Open Sans';writing-mode:lr-tb;fill:#000000;fill-opacity:1;fill-rule:nonzero;stroke:none"
         id="text174"><tspan
           x="0 2.6380913 8.625742 12.005887 17.466179 21.398088 30.54977 36.010063 41.988018 44.367279 49.778786 53.158962"
           y="0"
           id="tspan172">Intermediate</tspan></text>
      <text
         xml:space="preserve"
         transform="matrix(1,0,0,-1,0,818.6719)"
         style="font-variant:normal;font-weight:600;font-size:10px;font-family:'Open Sans';-inkscape-font-specification:'Open Sans';writing-mode:lr-tb;fill:#000000;fill-opacity:1;fill-rule:nonzero;stroke:#000000;stroke-width:0.28583;stroke-linecap:butt;stroke-linejoin:miter;stroke-miterlimit:10;stroke-dasharray:none;stroke-opacity:1"
         id="text178"><tspan
           x="0 2.838274 8.4890547 13.690516 19.341297 24.689281 29.490406 33.651894 36.289986 42.370358 48.598667"
           y="0"
           id="tspan176">JavaScript-</tspan></text>
      <text
         xml:space="preserve"
         transform="matrix(1,0,0,-1,54.11395,818.6719)"
         style="font-variant:normal;font-weight:normal;font-size:10px;font-family:'Open Sans';-inkscape-font-specification:'Open Sans';writing-mode:lr-tb;fill:#000000;fill-opacity:1;fill-rule:nonzero;stroke:none"
         id="text182"><tspan
           x="0 6.3295369 11.789802 17.118284 19.497543 25.485193 31.472816 36.933109"
           y="0"
           id="tspan180">Beginner</tspan></text>
      <text
         xml:space="preserve"
         transform="matrix(1,0,0,-1,0,805.46191)"
         style="font-variant:normal;font-weight:600;font-size:10px;font-family:'Open Sans';-inkscape-font-specification:'Open Sans';writing-mode:lr-tb;fill:#000000;fill-opacity:1;fill-rule:nonzero;stroke:#000000;stroke-width:0.28583;stroke-linecap:butt;stroke-linejoin:miter;stroke-miterlimit:10;stroke-dasharray:none;stroke-opacity:1"
         id="text186"><tspan
           x="0 7.3596187 12.868696 21.947216 27.21702 30.968277 37.156082 42.504093 50.299709"
           y="0"
           id="tspan184">HTML/CSS-</tspan></text>
      <text
         xml:space="preserve"
         transform="matrix(1,0,0,-1,55.81502,805.46191)"
         style="font-variant:normal;font-weight:normal;font-size:10px;font-family:'Open Sans';-inkscape-font-specification:'Open Sans';writing-mode:lr-tb;fill:#000000;fill-opacity:1;fill-rule:nonzero;stroke:none"
         id="text190"><tspan
           x="0 2.6381197 8.625742 12.005915 17.466179 21.398088 30.549799 36.010063 41.988018 44.367306 49.778786 53.158962"
           y="0"
           id="tspan188">Intermediate</tspan></text>
      <text
         xml:space="preserve"
         transform="matrix(1,0,0,-1,0,792.25192)"
         style="font-variant:normal;font-weight:600;font-size:10px;font-family:'Open Sans';-inkscape-font-specification:'Open Sans';writing-mode:lr-tb;fill:#000000;fill-opacity:1;fill-rule:nonzero;stroke:#000000;stroke-width:0.28583;stroke-linecap:butt;stroke-linejoin:miter;stroke-miterlimit:10;stroke-dasharray:none;stroke-opacity:1"
         id="text194"><tspan
           x="0 6.2416062 11.85327 17.504051 22.305174 28.533459"
           y="0"
           id="tspan192">React-</tspan></text>
      <text
         xml:space="preserve"
         transform="matrix(1,0,0,-1,34.04877,792.25192)"
         style="font-variant:normal;font-weight:normal;font-size:10px;font-family:'Open Sans';-inkscape-font-specification:'Open Sans';writing-mode:lr-tb;fill:#000000;fill-opacity:1;fill-rule:nonzero;stroke:none"
         id="text198"><tspan
           x="0 2.6381197 8.625742 12.005915 17.466179 21.398088 30.549799 36.010063 41.988018 44.367306 49.778786 53.158962"
           y="0"
           id="tspan196">Intermediate</tspan></text>
    </g>
    <g
       id="g200"
       transform="translate(76.00343,-456.09653)">
      <text
         xml:space="preserve"
         transform="matrix(1,0,0,-1,0,831.88189)"
         style="font-variant:normal;font-weight:600;font-size:10px;font-family:'Open Sans';-inkscape-font-specification:'Open Sans';writing-mode:lr-tb;fill:#000000;fill-opacity:1;fill-rule:nonzero;stroke:#000000;stroke-width:0.28583;stroke-linecap:butt;stroke-linejoin:miter;stroke-miterlimit:10;stroke-dasharray:none;stroke-opacity:1"
         id="text204"><tspan
           x="0 7.6819463 13.640344 19.720715 25.332378 28.170652 35.966297"
           y="0"
           id="tspan202">NodeJS-</tspan></text>
      <text
         xml:space="preserve"
         transform="matrix(1,0,0,-1,41.48158,831.88189)"
         style="font-variant:normal;font-weight:normal;font-size:10px;font-family:'Open Sans';-inkscape-font-specification:'Open Sans';writing-mode:lr-tb;fill:#000000;fill-opacity:1;fill-rule:nonzero;stroke:none"
         id="text208"><tspan
           x="0 2.6381197 8.625742 12.005915 17.466208 21.398088 30.549799 36.01009 41.988018 44.367306 49.778816 53.158962"
           y="0"
           id="tspan206">Intermediate</tspan></text>
      <text
         xml:space="preserve"
         transform="matrix(1,0,0,-1,0,818.6719)"
         style="font-variant:normal;font-weight:600;font-size:10px;font-family:'Open Sans';-inkscape-font-specification:'Open Sans';writing-mode:lr-tb;fill:#000000;fill-opacity:1;fill-rule:nonzero;stroke:#000000;stroke-width:0.28583;stroke-linecap:butt;stroke-linejoin:miter;stroke-miterlimit:10;stroke-dasharray:none;stroke-opacity:1"
         id="text212"><tspan
           x="0 9.0784912 15.036888 21.234558 26.646067 32.604462 39.793324 48.692436"
           y="0"
           id="tspan210">MongoDB-</tspan></text>
      <text
         xml:space="preserve"
         transform="matrix(1,0,0,-1,54.20775,818.6719)"
         style="font-variant:normal;font-weight:normal;font-size:10px;font-family:'Open Sans';-inkscape-font-specification:'Open Sans';writing-mode:lr-tb;fill:#000000;fill-opacity:1;fill-rule:nonzero;stroke:none"
         id="text216"><tspan
           x="0 6.3295088 11.789802 17.118256 19.497515 25.485165 31.472788 36.933079"
           y="0"
           id="tspan214">Beginner</tspan></text>
      <text
         xml:space="preserve"
         transform="matrix(1,0,0,-1,0,805.46191)"
         style="font-variant:normal;font-weight:600;font-size:10px;font-family:'Open Sans';-inkscape-font-specification:'Open Sans';writing-mode:lr-tb;fill:#000000;fill-opacity:1;fill-rule:nonzero;stroke:#000000;stroke-width:0.28583;stroke-linecap:butt;stroke-linejoin:miter;stroke-miterlimit:10;stroke-dasharray:none;stroke-opacity:1"
         id="text220"><tspan
           x="0 6.0023341 11.21366 14.99434 21.192009 27.150406 35.795677"
           y="0"
           id="tspan218">Python-</tspan></text>
      <text
         xml:space="preserve"
         transform="matrix(1,0,0,-1,38.86339,805.46191)"
         style="font-variant:normal;font-weight:normal;font-size:10px;font-family:'Open Sans';-inkscape-font-specification:'Open Sans';writing-mode:lr-tb;fill:#000000;fill-opacity:1;fill-rule:nonzero;stroke:none"
         id="text224"><tspan
           x="0 2.6380913 8.625742 12.005887 17.466179 21.398088 30.54977 36.010063 41.988018 44.367279 49.778786 53.158932"
           y="0"
           id="tspan222">Intermediate</tspan></text>
      <text
         xml:space="preserve"
         transform="matrix(1,0,0,-1,0,792.25192)"
         style="font-variant:normal;font-weight:600;font-size:10px;font-family:'Open Sans';-inkscape-font-specification:'Open Sans';writing-mode:lr-tb;fill:#000000;fill-opacity:1;fill-rule:nonzero;stroke:#000000;stroke-width:0.28583;stroke-linecap:butt;stroke-linejoin:miter;stroke-miterlimit:10;stroke-dasharray:none;stroke-opacity:1"
         id="text228"><tspan
           x="0 5.3479843 13.069049 20.786457"
           y="0"
           id="tspan226">SQL-</tspan></text>
      <text
         xml:space="preserve"
         transform="matrix(1,0,0,-1,26.30177,792.25192)"
         style="font-variant:normal;font-weight:normal;font-size:10px;font-family:'Open Sans';-inkscape-font-specification:'Open Sans';writing-mode:lr-tb;fill:#000000;fill-opacity:1;fill-rule:nonzero;stroke:none"
         id="text232"><tspan
           x="0 2.6381197 8.625742 12.005887 17.466179 21.398088 30.54977 36.010063 41.988018 44.367306 49.778786 53.158962"
           y="0"
           id="tspan230">Intermediate</tspan></text>
    </g>
    <g
       id="g234"
       transform="translate(268.09637,-522.91006)">
      <text
         xml:space="preserve"
         transform="matrix(1,0,0,-1,0,830.78307)"
         style="font-variant:normal;font-weight:600;font-size:11px;font-family:'Open Sans';-inkscape-font-specification:'Open Sans';writing-mode:lr-tb;fill:#000000;fill-opacity:1;fill-rule:nonzero;stroke:#000000;stroke-width:0.31442;stroke-linecap:butt;stroke-linejoin:miter;stroke-miterlimit:10;stroke-dasharray:none;stroke-opacity:1"
         id="text238"><tspan
           x="0 6.6175652 13.4983 22.006374 25.14345 31.13246 37.954033 44.029049"
           y="0"
           id="tspan236">PROJECTS</tspan></text>
    </g>
    <g
       id="g240"
       transform="translate(67.19085,-555.86203)">
      <text
         xml:space="preserve"
         transform="matrix(1,0,0,-1,0,830.78307)"
         style="font-variant:normal;font-weight:600;font-size:11px;font-family:'Open Sans';-inkscape-font-specification:'Open Sans';writing-mode:lr-tb;fill:#000000;fill-opacity:1;fill-rule:nonzero;stroke:#000000;stroke-width:0.31442;stroke-linecap:butt;stroke-linejoin:miter;stroke-miterlimit:10;stroke-dasharray:none;stroke-opacity:1"
         id="text244"><tspan
           x="0 8.4651594 16.973263 23.048277 29.037289 34.935139 42.057552 48.675117"
           y="0"
           id="tspan242">NOTESAPP</tspan></text>
    </g>
    <g
       id="g246"
       transform="translate(67.19085,-574.8429)">
      <text
         xml:space="preserve"
         transform="matrix(1,0,0,-1,0,832.05673)"
         style="font-variant:normal;font-weight:normal;font-size:9px;font-family:'Open Sans';-inkscape-font-specification:'Open Sans';writing-mode:lr-tb;fill:#000000;fill-opacity:1;fill-rule:nonzero;stroke:none"
         id="text250"><tspan
           x="0 7.7329702 13.146378 18.045582 22.900846 27.035519 32.250473 40.432449 45.331654 52.884537 58.429787 63.794918 69.160057 71.286377 73.412704 77.547371 82.402641 85.42984 87.556168 92.842072 100.4036 107.25407 109.38039 112.40759 119.96912 124.49049 129.77637 134.55688 136.68324 142.05702 145.21156 150.62497 155.52417 160.30472 162.43103 166.57436 169.60156 174.50076 180.21228 185.06752 190.44133 197.99422 203.35934 208.21461 212.35794 214.48425 220.80669 226.33427 231.74768 238.14984 246.7486 251.24345 256.61725 261.99106 266.1257 269.15292 271.27924 276.56516 281.93893 286.79419 288.92053 291.04684 294.07404 296.20038 301.09961 305.24292"
           y="0"
           id="tspan248">AReactWebApplicationwithLogin/RegisterandbasicCRUDFunctionalities.</tspan></text>
      <text
         xml:space="preserve"
         transform="matrix(1,0,0,-1,0,819.22676)"
         style="font-variant:normal;font-weight:600;font-size:9px;font-family:'Open Sans';-inkscape-font-specification:'Open Sans';writing-mode:lr-tb;fill:#000000;fill-opacity:1;fill-rule:nonzero;stroke:#000000;stroke-width:0.25725;stroke-linecap:butt;stroke-linejoin:miter;stroke-miterlimit:10;stroke-dasharray:none;stroke-opacity:1"
         id="text254"><tspan
           x="0 6.384501 8.7437201 12.13132 17.694199 23.257076"
           y="0"
           id="tspan252">Github</tspan></text>
      <text
         xml:space="preserve"
         transform="matrix(1,0,0,-1,28.71445,819.22676)"
         style="font-variant:normal;font-weight:normal;font-size:9px;font-family:'Open Sans';-inkscape-font-specification:'Open Sans';writing-mode:lr-tb;fill:#000000;fill-opacity:1;fill-rule:nonzero;stroke:none"
         id="text258"><tspan
           x="0 4.4327621 9.8065414 12.833745 15.860948 21.226082 25.369398 27.614437 30.768972 33.923538 38.704052 40.830379 43.857582 49.231361 54.605167 59.970303 62.215313 66.349983 71.635864 79.857437 83.012001 88.280418 93.654198 97.714119 101.77404 103.90037 108.7996 114.16473 119.53851 122.69305 128.06682 133.35274 136.37993 141.27916 145.42249 150.27774 155.64288"
           y="0"
           id="tspan256">:https://github.com/PuzzledK/notesapp</tspan></text>
    </g>
    <g
       id="g260"
       transform="translate(67.19085,-619.70377)">
      <text
         xml:space="preserve"
         transform="matrix(1,0,0,-1,0,830.78307)"
         style="font-variant:normal;font-weight:600;font-size:11px;font-family:'Open Sans';-inkscape-font-specification:'Open Sans';writing-mode:lr-tb;fill:#000000;fill-opacity:1;fill-rule:nonzero;stroke:#000000;stroke-width:0.31442;stroke-linecap:butt;stroke-linejoin:miter;stroke-miterlimit:10;stroke-dasharray:none;stroke-opacity:1"
         id="text264"><tspan
           x="0 8.4651594 14.454198 24.707991 30.60581 37.728256 44.345821"
           y="0"
           id="tspan262">NEWSAPP</tspan></text>
    </g>
    <g
       id="g266"
       transform="translate(65.68957,-638.69094)">
      <text
         xml:space="preserve"
         transform="matrix(1,0,0,-1,0,832.05673)"
         style="font-variant:normal;font-weight:normal;font-size:9px;font-family:'Open Sans';-inkscape-font-specification:'Open Sans';writing-mode:lr-tb;fill:#000000;fill-opacity:1;fill-rule:nonzero;stroke:none"
         id="text272"><tspan
           x="0 7.7329702 13.146378 18.045582 22.900846 27.035519 32.250473 40.432449 45.331654 52.884537 58.429787 63.794918 69.160057 71.286377 73.412704 77.547371 82.402641 85.42984 87.556168 92.842072 100.4036 107.25407 112.62785 114.75417 118.88884 126.45037 128.57669 133.47592 137.83464 142.73386 146.2576 151.11287 155.89339 160.79262 167.12366 172.49745 177.39667 184.24712 188.39044 193.93565 199.2041 203.75104 208.60631 213.98009 221.53297 226.8981 229.02443 233.16776 238.53288 240.65924 245.5145 249.89951 256.23056 261.60434 266.50357 273.354 279.68509 284.54034 289.90549 295.19138 300.56516"
           y="0"
           id="tspan268">AReactWebApplicationwhichleveragesnewsAPIanddisplaysnewsabout</tspan><tspan
           x="0 5.3651338 7.4914584 10.391159 13.29086 18.190063 21.713812 26.613014 31.986822 37.201775 41.336449 46.191715 49.218918 54.118118 58.898636 64.18454 67.70829 69.834618 74.733849 78.877159"
           y="12.82997"
           id="tspan270">differentcategories.</tspan></text>
    </g>
    <g
       id="g274"
       transform="translate(67.19085,-667.94281)">
      <text
         xml:space="preserve"
         transform="matrix(1,0,0,-1,0,832.69815)"
         style="font-variant:normal;font-weight:600;font-size:9px;font-family:'Open Sans';-inkscape-font-specification:'Open Sans';writing-mode:lr-tb;fill:#000000;fill-opacity:1;fill-rule:nonzero;stroke:#000000;stroke-width:0.25725;stroke-linecap:butt;stroke-linejoin:miter;stroke-miterlimit:10;stroke-dasharray:none;stroke-opacity:1"
         id="text278"><tspan
           x="0 6.384501 8.7437201 12.13132 17.694199 23.257076"
           y="0"
           id="tspan276">Github</tspan></text>
      <text
         xml:space="preserve"
         transform="matrix(1,0,0,-1,28.71445,832.69815)"
         style="font-variant:normal;font-weight:normal;font-size:9px;font-family:'Open Sans';-inkscape-font-specification:'Open Sans';writing-mode:lr-tb;fill:#000000;fill-opacity:1;fill-rule:nonzero;stroke:none"
         id="text282"><tspan
           x="0 4.4327621 9.8065414 12.833745 15.860948 21.226082 25.369398 27.614437 30.768972 33.923538 38.704052 40.830379 43.857582 49.231361 54.605167 59.970303 62.215313 66.349983 71.635864 79.857437 83.012001 88.280418 93.654198 97.714119 101.77404 103.90037 108.7996 114.16473 119.53851 122.69305 129.32809 134.22731 141.07776 145.22108 150.76633 156.13145"
           y="0"
           id="tspan280">:https://github.com/PuzzledK/NewsApp</tspan></text>
    </g>
    <g
       id="g284"
       transform="translate(68.76519,-699.30377)">
      <text
         xml:space="preserve"
         transform="matrix(1,0,0,-1,0,830.78307)"
         style="font-variant:normal;font-weight:600;font-size:11px;font-family:'Open Sans';-inkscape-font-specification:'Open Sans';writing-mode:lr-tb;fill:#000000;fill-opacity:1;fill-rule:nonzero;stroke:#000000;stroke-width:0.31442;stroke-linecap:butt;stroke-linejoin:miter;stroke-miterlimit:10;stroke-dasharray:none;stroke-opacity:1"
         id="text288"><tspan
           x="0 6.074986 12.907275 19.137997 25.755562 30.348198 36.917347 41.090939 44.480438"
           y="0"
           id="tspan286">ThaProt-G</tspan></text>
    </g>
    <g
       id="g290"
       transform="translate(68.76519,-720.54281)">
      <text
         xml:space="preserve"
         transform="matrix(1,0,0,-1,0,832.05673)"
         style="font-variant:normal;font-weight:normal;font-size:9px;font-family:'Open Sans';-inkscape-font-specification:'Open Sans';writing-mode:lr-tb;fill:#000000;fill-opacity:1;fill-rule:nonzero;stroke:none"
         id="text298"><tspan
           x="0 7.7329702 13.260557 18.546463 20.672787 22.799112 27.698343 32.478859 39.565815 46.416275 51.315475 56.680611 60.823929 62.950253 65.977486 73.064438 81.286018 86.141281 91.506416 98.593369 105.44383 107.57015 110.59736 118.15889 123.5723 128.4715 133.32677 137.46144 142.67639 149.86006 156.49512 161.78102 167.14616 172.04536 174.29904 181.27612 188.12659 193.50037 195.62669 199.76137 207.32289 212.68803 216.21178 218.33813 223.70326 228.48378 233.38298 239.71405 242.74126 248.11504 255.20201 259.98254 264.8378 272.39069 277.75583 282.65503 285.68222 292.53268 297.43188 302.33112 309.89264 314.74792 316.87424 322.24802 330.4696 335.84338"
           y="0"
           id="tspan292">ACollegewebsitemadewithReact+NodeJSwhichbridgesthegapbetweenalumni</tspan><tspan
           x="0 4.855238 10.229046 17.781931 21.925247 24.95245 30.326229 35.691364 40.590569 45.964348 48.991577 53.134895 57.378559 64.228989 69.602798 71.729118 73.855446 80.942398 85.797668 87.923988 92.067307 99.540962 104.9061 107.03242 111.17574 116.54087 118.6672 123.52246 127.90749 130.03381 135.40759 142.37589 146.51053 151.79643 153.92276 156.04909 160.94832 165.72884 172.8158 177.715 182.07372 186.97292 192.34673 195.37393 199.51724 201.57315 206.35367 211.20894 213.33527 215.46161 220.36082 223.88457 230.45735 235.31261 240.68639 248.23927 253.60442 257.12814 262.41406 264.54037 269.43961 273.57425 276.60147 280.74478 285.17755 290.72278 292.84912 296.99243"
           y="12.82997"
           id="tspan294">andstudents,whilealsodisplayingcollegeevents,galleryandprojects.Also</tspan><tspan
           x="0 2.1263244 7.500104 11.634775 13.761099 19.134878 24.500013 26.626337 32.000145 38.968414 43.823677 51.385208 56.930458 62.295589 70.517166 72.643494 80.205025 84.348343 86.474663 89.501869 94.4011"
           y="25.659941"
           id="tspan296">includinganAdminsite.</tspan></text>
      <text
         xml:space="preserve"
         transform="matrix(1,0,0,-1,0,793.56682)"
         style="font-variant:normal;font-weight:bold;font-size:9px;font-family:'Open Sans';-inkscape-font-specification:'Open Sans-Bold';writing-mode:lr-tb;fill:#000000;fill-opacity:1;fill-rule:nonzero;stroke:none"
         id="text302"><tspan
           x="0 6.3670392 8.9636316 12.720245 18.485207 24.250195"
           y="0"
           id="tspan300">Github</tspan></text>
      <text
         xml:space="preserve"
         transform="matrix(1,0,0,-1,29.79541,793.56682)"
         style="font-variant:normal;font-weight:normal;font-size:9px;font-family:'Open Sans';-inkscape-font-specification:'Open Sans';writing-mode:lr-tb;fill:#000000;fill-opacity:1;fill-rule:nonzero;stroke:none"
         id="text306"><tspan
           x="0 4.4327908 9.949791 13.12679 16.303791 21.81179 26.10479 28.498791 31.80179 35.10479 40.02779 42.295792 45.47279 50.989792 56.50679 62.01479 64.408791 68.692787 74.128792 82.498787 85.801788 93.919792 98.92379 104.43179 109.94879 114.95279 119.45279 122.34179 130.45979 135.46379 140.98079 145.98479 148.25279 153.25679 158.77379 161.6628 166.80179 171.9408 175.24379 180.22079 185.73779 190.74179 196.24979 199.92178 205.35779 208.53479 215.08679 217.97578 223.39378 228.3978 233.32079 238.3698"
           y="0"
           id="tspan304">:https://github.com/Madhav-Mahajan-13/ThaprotG-Pages</tspan></text>
    </g>
  </g>
</svg>
