<svg xmlns="http://www.w3.org/2000/svg" width="250" height="250" viewBox="0 0 250 250" version="1.1">
	<path d="M 112.099 13.058 C 62.321 19.232, 23.241 56.221, 13.904 106 C 12.334 114.366, 12.334 135.634, 13.904 144 C 22.079 187.580, 53.676 222.388, 95.131 233.482 C 143.418 246.405, 192.654 227.515, 219.780 185.660 C 233.126 165.067, 239.620 138.406, 237.066 114.687 C 233.046 77.343, 213.859 47.148, 181.973 27.984 C 161.978 15.967, 135.041 10.212, 112.099 13.058 M 155.900 46.075 C 146.329 51.782, 146.263 65.745, 155.782 71.305 C 168.298 78.615, 182.823 64.964, 176.248 52.071 C 173.807 47.282, 169.967 44.788, 164.324 44.325 C 160.670 44.025, 158.627 44.449, 155.900 46.075 M 111.500 61.409 C 104.124 63.110, 97 65.912, 97 67.111 C 97 67.602, 99.138 71.820, 101.750 76.484 C 105.205 82.651, 106.909 84.801, 108 84.367 C 114.277 81.875, 121.217 80.825, 128.291 81.297 C 147.243 82.561, 163.458 96.644, 167.962 115.750 L 169.199 121 179.688 121 L 190.176 121 189.520 116.750 C 187.686 104.861, 182.678 93.164, 175.630 84.312 L 171.500 79.125 166.500 79.670 C 159.027 80.484, 153.545 78.598, 148.387 73.439 C 145.873 70.925, 143.684 67.669, 143.335 65.923 C 142.919 63.847, 141.869 62.512, 140.109 61.825 C 135.769 60.130, 118.157 59.874, 111.500 61.409 M 83.682 74.951 C 74.640 82.423, 67.427 92.868, 63.371 104.366 C 62.087 108.004, 62.129 108.514, 63.868 110.419 C 71.291 118.555, 71.291 131.445, 63.868 139.581 C 62.129 141.486, 62.087 141.996, 63.371 145.634 C 67.430 157.139, 74.638 167.575, 83.701 175.066 C 89.264 179.664, 88.584 180.069, 95.119 168.264 L 99.124 161.029 94.047 155.952 C 76.823 138.728, 76.787 111.672, 93.965 94.036 C 96.734 91.193, 99 88.714, 99 88.527 C 99 88.073, 88.941 71, 88.674 71 C 88.558 71, 86.312 72.778, 83.682 74.951 M 42.020 111.752 C 31.306 117.134, 31.286 132.463, 41.984 138.148 C 51.559 143.236, 63 136.078, 63 125 C 63 113.978, 51.740 106.868, 42.020 111.752 M 167.962 134.250 C 163.469 153.310, 147.197 167.442, 128.291 168.703 C 121.217 169.175, 114.277 168.125, 108 165.633 C 106.909 165.199, 105.205 167.349, 101.750 173.516 C 99.138 178.180, 97 182.414, 97 182.926 C 97 184.294, 106.838 187.739, 114.611 189.093 C 121.766 190.339, 135.713 189.820, 140.122 188.144 C 141.879 187.476, 142.918 186.160, 143.335 184.077 C 143.684 182.331, 145.873 179.075, 148.387 176.561 C 153.545 171.402, 159.027 169.516, 166.500 170.330 L 171.500 170.875 175.630 165.688 C 182.678 156.836, 187.686 145.139, 189.520 133.250 L 190.176 129 179.688 129 L 169.199 129 167.962 134.250 M 158.500 177.491 C 147.814 181.303, 145.125 194.512, 153.532 201.894 C 157.656 205.515, 160.753 206.464, 165.781 205.648 C 175.832 204.017, 181.298 192.141, 175.750 183.990 C 171.202 177.307, 165.276 175.074, 158.500 177.491" stroke="none" fill="#ffffff" fill-rule="evenodd"/>
</svg>